inDegrees=no
num_controls=7
num_derivatives=13
num_iterations=81
num_multipliers=7
num_parameters=0
num_slacks=7
num_states=26
objective=0.428975
objective_accelerations=0.068699
objective_balance=0.003555
objective_effort=0.027981
objective_height=0.323356
objective_ligament=0.005384
solver_duration=1067.725412
status=Solve_Succeeded
success=true
DataType=double
version=3
OpenSimVersion=4.5
endheader
time	/jointset/ground_pelvis/pelvis_tilt/value	/jointset/ground_pelvis/pelvis_tx/value	/jointset/ground_pelvis/pelvis_ty/value	/jointset/hip_l/hip_flexion_l/value	/jointset/hip_l/hip_adduction_l/value	/jointset/hip_l/hip_rotation_l/value	/jointset/back/lumbar_extension/value	/jointset/patellofemoral_l/patellar_flexion_l/value	/jointset/knee_l/knee_flexion_l/value	/jointset/knee_l/knee_adduction_l/value	/jointset/knee_l/knee_rotation_l/value	/jointset/ankle_l/ankle_angle_l/value	/jointset/subtalar_l/subtalar_angle_l/value	/jointset/ground_pelvis/pelvis_tilt/speed	/jointset/ground_pelvis/pelvis_tx/speed	/jointset/ground_pelvis/pelvis_ty/speed	/jointset/hip_l/hip_flexion_l/speed	/jointset/hip_l/hip_adduction_l/speed	/jointset/hip_l/hip_rotation_l/speed	/jointset/back/lumbar_extension/speed	/jointset/patellofemoral_l/patellar_flexion_l/speed	/jointset/knee_l/knee_flexion_l/speed	/jointset/knee_l/knee_adduction_l/speed	/jointset/knee_l/knee_rotation_l/speed	/jointset/ankle_l/ankle_angle_l/speed	/jointset/subtalar_l/subtalar_angle_l/speed	/forceset/tau_hip_flexion_l	/forceset/tau_hip_adduction_l	/forceset/tau_hip_rotation_l	/forceset/tau_knee_flexion_l	/forceset/tau_ankle_angle_l	/forceset/tau_subtalar_angle_l	/forceset/tau_lumbar_extension	lambda_cid13_p0	lambda_cid13_p1	lambda_cid13_p2	lambda_cid13_p3	lambda_cid13_p4	lambda_cid13_p5	lambda_cid14_p0	/jointset/ground_pelvis/pelvis_tilt/accel	/jointset/ground_pelvis/pelvis_tx/accel	/jointset/ground_pelvis/pelvis_ty/accel	/jointset/hip_l/hip_flexion_l/accel	/jointset/hip_l/hip_adduction_l/accel	/jointset/hip_l/hip_rotation_l/accel	/jointset/back/lumbar_extension/accel	/jointset/patellofemoral_l/patellar_flexion_l/accel	/jointset/knee_l/knee_flexion_l/accel	/jointset/knee_l/knee_adduction_l/accel	/jointset/knee_l/knee_rotation_l/accel	/jointset/ankle_l/ankle_angle_l/accel	/jointset/subtalar_l/subtalar_angle_l/accel	gamma_cid13_p0	gamma_cid13_p1	gamma_cid13_p2	gamma_cid13_p3	gamma_cid13_p4	gamma_cid13_p5	gamma_cid14_p0
1	-0.5639095284511465	-0.07852338694329924	0.4536322735311362	2.181660629184292	-0.4548181102585647	0.1380972608360601	-0.2617789400576692	1.72038755875077	1.72038755875088	-0.01454208591587584	-0.1745218170959866	0.2692049482014057	0.03494192833645313	-0.01656988738114468	0.01061104339862562	0.004059778927866292	-0.008140708830337583	-0.003259809261294012	0.005163941012900869	1.157270912976657e-05	0.001417991001282032	0.001417991001282094	-0.006453606087691683	-8.296055459671098e-05	0.02633418342562057	0.01264497097638389	-0.3566959948931331	-0.02235358510831197	0.004873874290399345	-0.3508610482673893	0.02608165641578948	0.01326510092529013	0.2998632498779398	-33.703556739208	1.368990822503425	-1.957729114683024	17.71134966223396	-667.3911171965984	-46.72029194837847	-0.02806909419592617	0.8947320667756739	-0.1535490971728665	2.553229116300771	-7.868163351412514	-0.4776042631627613	-2.914996032456805	-0.01342405733478293	-6.384739278559186	-6.384739278559439	-0.9930974170155882	-0.05064797752275838	-0.2650914841641361	-0.7765240803823749	6.273366470668206e-09	2.785503391682545e-08	-2.098578234147821e-08	1.167768902923145e-10	-2.190870488127174e-09	4.585836345159005e-08	1.214747686902255e-09
1.01	-0.5640311634155583	-0.07842494454248293	0.4538004856697936	2.181186403001272	-0.4548733538119872	0.1380029865968098	-0.2617786239930875	1.720082490591408	1.720082490591512	-0.01465468838387847	-0.1745229457645098	0.2694553086394623	0.03503140993857309	-0.00773775881767952	0.009086949373525232	0.02958483696717287	-0.08672452474969934	-0.007786661117120955	-0.02401613372059792	4.974170423240387e-05	-0.0624351567605489	-0.06243515676055251	-0.01607086040103019	-0.0001469619768038338	0.02373396956030973	0.005250956620972479	-0.3568081175737011	-0.0222319632673873	0.004884584405166032	-0.3508326174385341	0.02600692822400082	0.0132829181246587	0.2999830096620332	-33.72602517627778	1.361997042211182	-1.952970905282588	17.56217182219653	-667.4797951402376	-46.72135762878487	-0.02807717382965444	0.8803526417793257	-0.1504130789789316	2.552469039700997	-7.856493170151665	-0.4398832350671726	-2.919122713019859	0.01215260246516367	-6.386129457967557	-6.386129457967922	-0.9466428930436258	0.01509766135088577	-0.2580778022093515	-0.7208999788487621	-6.160281237088172e-09	1.502877607047898e-08	-1.045582137848123e-08	-2.05364659800183e-09	-1.651813968629075e-08	1.348319351651718e-07	-1.558069862365944e-08
1.02	-0.5640638972162046	-0.0783414577866777	0.4542240133672349	2.179925738167469	-0.4549737974016219	0.1376169897063699	-0.261777983193648	1.719138785567833	1.719138785567926	-0.01486358408593013	-0.17452483967004	0.2696795486459672	0.03504693942399337	0.001210345371678777	0.007619914396405218	0.05512289068466886	-0.1654284389872084	-0.01229981650392471	-0.0531805892230351	7.651968062758822e-05	-0.1263093818412807	-0.1263093818412858	-0.02571225289639499	-0.0002360079621883169	0.02111009711520686	-0.002145452363568991	-0.3569202402542364	-0.02211034142647752	0.004895294519937366	-0.3508041866096834	0.0259322000322025	0.0133007353240005	0.3001027694461625	-33.74991755400416	1.356341542049445	-1.949669217057632	17.43772241589817	-667.5891710414651	-46.67923510249769	-0.02808311238122277	0.9179271919542864	-0.1421372875767982	2.555828251938651	-7.892183015041947	-0.4748649693580871	-2.911872186244465	-0.01570226107627872	-6.388954742339357	-6.38895474233918	-0.9979250534208275	-0.05565689015816738	-0.2698232001225482	-0.777003006208341	-1.455695572506377e-08	2.926981480545623e-09	4.588485454237609e-09	-1.143969882451157e-08	-2.952869843327355e-08	2.204496135075171e-07	-3.167571382538627e-08
1.03	-0.5640064665965191	-0.07827227122236234	0.4549029044889776	2.17787763674411	-0.4551190838209837	0.1369395750252304	-0.2617771380407224	1.717556339956214	1.717556339956236	-0.01516886502659126	-0.1745275717829901	0.2698772689282528	0.03498869199308535	0.01030587885637969	0.006235408072890622	0.08064949144888486	-0.244192697358483	-0.01673264234599574	-0.0822808715970381	8.945825002097468e-05	-0.1901727427451067	-0.190172742745109	-0.0353364127985685	-0.0002957170529997212	0.01841431167600695	-0.00948353698481169	-0.3567528317870393	-0.02190362096954888	0.004903955202701525	-0.3507719596752243	0.02611982873697844	0.0134199016401722	0.3000466919191226	-33.66895066885441	1.276697585031789	-1.921308236748905	17.14110025149652	-667.4754396574351	-46.72561599315156	-0.02810974138468661	0.9098750963760593	-0.1339101010594306	2.550191072478674	-7.868682069946131	-0.4237630092116803	-2.905909687127838	0.009334017748998421	-6.383967453608975	-6.383967453608669	-0.9435572399445861	0.02109046843627286	-0.2724078591380152	-0.7091370389346499	-2.291243660875587e-08	-9.167420627179436e-09	1.967885704072915e-08	-2.089937991569701e-08	-4.252582135932594e-08	3.060330480399519e-07	-4.776358177090049e-08
